<mxfile host="app.diagrams.net" modified="2022-07-18T02:03:21.700Z" agent="5.0 (Macintosh; Intel Mac OS X 10_15_7) AppleWebKit/537.36 (KHTML, like Gecko) Chrome/103.0.0.0 Safari/537.36" etag="9coJOqdcf5g9MzDPtGH6" version="20.1.1" type="github">
  <diagram id="3228e29e-7158-1315-38df-8450db1d8a1d" name="Page-1">
    <mxGraphModel dx="1298" dy="699" grid="0" gridSize="10" guides="1" tooltips="1" connect="1" arrows="1" fold="1" page="1" pageScale="1" pageWidth="600" pageHeight="250" background="#EFF1F3" math="0" shadow="0">
      <root>
        <mxCell id="0" />
        <mxCell id="1" parent="0" />
        <mxCell id="aMB2SkQLuwcF9kNnRCJI-1" value="&lt;font style=&quot;font-size: 30px;&quot;&gt;1&lt;/font&gt;" style="rounded=1;whiteSpace=wrap;html=1;strokeWidth=1;fontSize=30;strokeColor=#000000;fillColor=#67AB9F;" parent="1" vertex="1">
          <mxGeometry x="50" y="71" width="80" height="60" as="geometry" />
        </mxCell>
        <mxCell id="aMB2SkQLuwcF9kNnRCJI-5" value="" style="shape=curlyBracket;whiteSpace=wrap;html=1;rounded=1;strokeColor=#000000;strokeWidth=5;fillColor=none;fontSize=30;fontColor=#000000;direction=north;" parent="1" vertex="1">
          <mxGeometry x="54" y="150" width="475" height="20" as="geometry" />
        </mxCell>
        <mxCell id="aMB2SkQLuwcF9kNnRCJI-6" value="二进制字节流" style="text;html=1;strokeColor=none;fillColor=none;align=center;verticalAlign=middle;whiteSpace=wrap;rounded=0;fontSize=30;fontColor=#000000;" parent="1" vertex="1">
          <mxGeometry x="80" y="200" width="430" height="20" as="geometry" />
        </mxCell>
        <mxCell id="LV4p365XhPEVE4Nknt55-2" value="&lt;font style=&quot;font-size: 30px;&quot;&gt;0&lt;/font&gt;" style="rounded=1;whiteSpace=wrap;html=1;strokeWidth=1;fontSize=30;strokeColor=#000000;fillColor=#FDD276;" vertex="1" parent="1">
          <mxGeometry x="130" y="71" width="80" height="60" as="geometry" />
        </mxCell>
        <mxCell id="LV4p365XhPEVE4Nknt55-3" value="&lt;font style=&quot;font-size: 30px;&quot;&gt;1&lt;/font&gt;" style="rounded=1;whiteSpace=wrap;html=1;strokeWidth=1;fontSize=30;strokeColor=#000000;fillColor=#67AB9F;" vertex="1" parent="1">
          <mxGeometry x="210" y="71" width="80" height="60" as="geometry" />
        </mxCell>
        <mxCell id="LV4p365XhPEVE4Nknt55-4" value="&lt;font style=&quot;font-size: 30px;&quot;&gt;1&lt;/font&gt;" style="rounded=1;whiteSpace=wrap;html=1;strokeWidth=1;fontSize=30;strokeColor=#000000;fillColor=#67AB9F;" vertex="1" parent="1">
          <mxGeometry x="290" y="71" width="80" height="60" as="geometry" />
        </mxCell>
        <mxCell id="LV4p365XhPEVE4Nknt55-5" value="&lt;font style=&quot;font-size: 30px;&quot;&gt;0&lt;/font&gt;" style="rounded=1;whiteSpace=wrap;html=1;strokeWidth=1;fontSize=30;strokeColor=#000000;fillColor=#FDD276;" vertex="1" parent="1">
          <mxGeometry x="370" y="71" width="80" height="60" as="geometry" />
        </mxCell>
        <mxCell id="LV4p365XhPEVE4Nknt55-6" value="&lt;font style=&quot;font-size: 30px;&quot;&gt;1&lt;/font&gt;" style="rounded=1;whiteSpace=wrap;html=1;strokeWidth=1;fontSize=30;strokeColor=#000000;fillColor=#67AB9F;" vertex="1" parent="1">
          <mxGeometry x="450" y="71" width="80" height="60" as="geometry" />
        </mxCell>
      </root>
    </mxGraphModel>
  </diagram>
</mxfile>
